<svg preserveAspectRatio="none" width="100%" height="100%" overflow="visible" style="display: block;" viewBox="0 0 160 136.166" fill="none" xmlns="http://www.w3.org/2000/svg">
<path id="Vector" d="M160 80C160 66.868 156.767 53.9378 150.587 42.3509C144.407 30.764 135.47 20.8766 124.564 13.5614C113.658 6.24628 101.119 1.72834 88.0533 0.406395C74.9879 -0.915552 61.798 0.99914 49.6478 5.98147C37.4976 10.9638 26.7608 18.8606 18.3849 28.9747C10.0091 39.0889 4.25184 51.1094 1.62138 63.9753C-1.00909 76.8412 -0.43189 90.1569 3.30203 102.747C7.03594 115.337 13.8117 126.814 23.0314 136.166L37.2735 122.124C30.3588 115.111 25.277 106.503 22.4765 97.0602C19.6761 87.6177 19.2432 77.6309 21.216 67.9815C23.1889 58.3321 27.5068 49.3167 33.7887 41.731C40.0706 34.1454 48.1232 28.2229 57.2359 24.4861C66.3485 20.7494 76.2409 19.3133 86.0399 20.3048C95.839 21.2963 105.243 24.6847 113.423 30.1711C121.602 35.6574 128.305 43.073 132.94 51.7632C137.575 60.4534 140 70.151 140 80H160Z" fill="var(--fill-0, #8E51FF)"/>
</svg>
